<svg width="233" height="37" viewBox="0 0 233 37" fill="none" xmlns="http://www.w3.org/2000/svg">
<g filter="url(#filter0_i_1_7)">
<path d="M44.8972 5.99709V36.0322H51.3463V17.0382L58.7358 29.7713H63.483L70.8726 17.0382V36.0322H77.3217V5.99709H71.2757L61.199 23.3413L51.1671 5.99709H44.8972ZM81.8233 24.8219C81.8233 31.5904 86.7945 36.6667 93.9153 36.6667C98.349 36.6667 102.962 34.5939 104.664 30.5751L99.0656 28.883C97.9012 30.6597 96.1993 31.675 93.9601 31.675C90.5564 31.675 88.6754 29.306 88.1828 26.3448H105.156V24.8642C105.156 18.0957 100.812 13.0617 93.6018 13.0617C86.5257 13.0617 81.8233 18.4765 81.8233 24.8219ZM93.6018 17.6304C96.6024 17.6304 98.3043 19.7455 98.7073 22.3683H88.2724C88.8098 19.7455 90.6012 17.6304 93.6018 17.6304ZM107.084 13.6962V18.4765H111.114V28.883C111.114 33.7055 114.025 36.6667 119.041 36.6667C121.012 36.6667 123.027 36.2014 124.729 35.1861L123.609 30.7443C122.534 31.1673 121.46 31.5058 120.295 31.5058C118.101 31.5058 117.384 30.0251 117.384 28.1638V18.4765H123.833V13.6962H117.384V6.08169H111.114V13.6962H107.084ZM135.548 36.6667C138.235 36.6667 141.101 35.6514 142.535 33.4094L142.714 36.0322H148.312V22.4952C148.312 16.6574 143.968 13.0617 138.056 13.0617C133.712 13.0617 129.009 15.2614 127.979 19.534L133.578 20.5916C134.249 18.8149 136.041 17.9265 137.966 17.9265C140.698 17.9265 142.221 19.7032 142.221 22.1991V23.5105C140.385 22.876 138.817 22.5375 136.847 22.5375C132.144 22.5375 127.128 24.695 127.128 29.6867C127.128 34.1285 131.249 36.6667 135.548 36.6667ZM133.309 29.3906C133.309 27.1486 135.951 26.514 137.877 26.514C138.638 26.514 139.355 26.5986 140.116 26.7255C140.877 26.8947 141.549 27.1062 142.221 27.3601V27.5716C142.221 30.3213 139.803 32.098 137.071 32.098C135.324 32.098 133.309 31.2942 133.309 29.3906ZM153.308 4.47418V36.0322H159.085L159.265 33.1133C160.922 35.4822 163.609 36.6667 166.565 36.6667C173.506 36.6667 177.806 30.7866 177.806 24.7373C177.806 18.688 173.641 13.0617 166.923 13.0617C163.967 13.0617 161.37 14.2885 159.578 16.5305V4.47418H153.308ZM165.445 18.3918C169.252 18.3918 171.401 21.5646 171.401 24.8642C171.401 28.2061 169.162 31.3365 165.445 31.3365C161.683 31.3365 159.489 28.1215 159.489 24.8642C159.489 21.5223 161.728 18.3918 165.445 18.3918ZM181.911 13.6962V36.0322H188.181V23.2144C188.181 20.4647 190.107 18.3918 193.018 18.3918C196.108 18.3918 197.228 20.8031 197.228 23.3836V36.0322H203.498V22.6221C203.498 17.4189 200.676 13.0617 194.854 13.0617C191.988 13.0617 189.346 14.2039 187.868 16.5728L187.689 13.6962H181.911ZM208.502 4.47418V36.0322H214.28L214.459 33.1133C216.116 35.4822 218.803 36.6667 221.759 36.6667C228.701 36.6667 233 30.7866 233 24.7373C233 18.688 228.835 13.0617 222.117 13.0617C219.161 13.0617 216.564 14.2885 214.772 16.5305V4.47418H208.502ZM220.639 18.3918C224.446 18.3918 226.596 21.5646 226.596 24.8642C226.596 28.2061 224.356 31.3365 220.639 31.3365C216.877 31.3365 214.683 28.1215 214.683 24.8642C214.683 21.5223 216.922 18.3918 220.639 18.3918Z" fill="url(#paint0_linear_1_7)"/>
<path d="M22.3926 5.96541H19.5935V7.28737H22.3926V5.96541Z" fill="url(#paint1_linear_1_7)"/>
<path d="M24.4919 8.60934H17.4942V9.93131H24.4919V8.60934Z" fill="url(#paint2_linear_1_7)"/>
<path d="M9.09698 17.8631H7.69745V19.1851H9.09698V17.8631Z" fill="url(#paint3_linear_1_7)"/>
<path d="M11.8961 17.8631H10.4965V19.1851H11.8961V17.8631Z" fill="url(#paint4_linear_1_7)"/>
<path d="M14.6952 17.8631H13.2957V19.1851H14.6952V17.8631Z" fill="url(#paint5_linear_1_7)"/>
<path d="M17.4942 17.8631H16.0947V19.1851H17.4942V17.8631Z" fill="url(#paint6_linear_1_7)"/>
<path d="M20.2933 17.8631H18.8938V19.1851H20.2933V17.8631Z" fill="url(#paint7_linear_1_7)"/>
<path d="M23.0924 17.8631H21.6928V19.1851H23.0924V17.8631Z" fill="url(#paint8_linear_1_7)"/>
<path d="M25.8914 17.8631H24.4919V19.1851H25.8914V17.8631Z" fill="url(#paint9_linear_1_7)"/>
<path d="M28.6905 17.8631H27.291V19.1851H28.6905V17.8631Z" fill="url(#paint10_linear_1_7)"/>
<path d="M31.4896 17.8631H30.0901V19.1851H31.4896V17.8631Z" fill="url(#paint11_linear_1_7)"/>
<path d="M34.2887 17.8631H32.8892V19.1851H34.2887V17.8631Z" fill="url(#paint12_linear_1_7)"/>
<path d="M15.3949 27.1168H13.9954V28.4388H15.3949V27.1168Z" fill="url(#paint13_linear_1_7)"/>
<path d="M22.3926 22.49V30.4218C22.3926 30.8184 22.6725 31.0828 23.0924 31.0828H32.8891C33.309 31.0828 33.5889 30.8184 33.5889 30.4218V22.49C33.5889 22.0934 33.309 21.829 32.8891 21.829H23.0924C22.6725 21.829 22.3926 22.094 22.3926 22.49ZM23.7921 27.1169H27.291V29.7608H23.7921V27.1169ZM28.6905 29.7608V27.1169H32.1894V29.7608H28.6905ZM32.1894 25.7949H28.6905V23.1509H32.1894V25.7949ZM27.291 23.1509V25.7949H23.7921V23.1509H27.291Z" fill="url(#paint14_linear_1_7)"/>
<path d="M39.1871 35.0486V33.0657C39.1871 32.6691 38.9072 32.4047 38.4873 32.4047H37.0878V16.5411H39.1871C39.6069 16.5411 39.8868 16.2767 39.8868 15.8801V13.4345C39.8868 13.2362 39.8169 13.0379 39.6069 12.9057L34.2887 9.20419V1.33849C34.2887 0.9419 34.0088 0.677507 33.5889 0.677507H27.9908C27.5709 0.677507 27.291 0.9419 27.291 1.33849V4.24682L21.4129 0.148721C21.133 -0.0495737 20.8531 -0.0495737 20.5732 0.148721L2.86905 12.5752H2.79908V12.6413L2.37922 12.9057C2.16929 13.0379 2.09931 13.2362 2.09931 13.4345V15.8801C2.09931 16.2767 2.37921 16.5411 2.79908 16.5411H4.89838V32.4047H3.49885C3.07898 32.4047 2.79908 32.6691 2.79908 33.0657V35.0486H0V36.3706H3.49885H38.4873H41.9861V35.0486H39.1871ZM32.8891 1.99947V2.66046H28.6905V1.99947H32.8891ZM28.6905 3.98242H32.8891V8.21272L28.6905 5.23829V3.98242ZM3.49885 13.8972H31.4896V12.5752H5.17829L20.9931 1.47135L38.4873 13.7656V15.2198H36.388H5.59815H3.49885V13.8972ZM6.29792 16.5411H35.6882V32.4047H18.194V23.1509H19.5935V21.829H17.4942H9.79677H7.69746V23.1509H9.097V32.4047H6.29792V16.5411ZM10.4965 23.1509H16.7945V32.4047H10.4965V23.1509ZM4.19861 35.0486V33.7267H5.59815H9.79677H17.4942H36.388H37.7875V35.0486H4.19861Z" fill="url(#paint15_linear_1_7)"/>
</g>
<defs>
<filter id="filter0_i_1_7" x="0" y="0" width="237" height="40.6667" filterUnits="userSpaceOnUse" color-interpolation-filters="sRGB">
<feFlood flood-opacity="0" result="BackgroundImageFix"/>
<feBlend mode="normal" in="SourceGraphic" in2="BackgroundImageFix" result="shape"/>
<feColorMatrix in="SourceAlpha" type="matrix" values="0 0 0 0 0 0 0 0 0 0 0 0 0 0 0 0 0 0 127 0" result="hardAlpha"/>
<feOffset dx="4" dy="4"/>
<feGaussianBlur stdDeviation="22"/>
<feComposite in2="hardAlpha" operator="arithmetic" k2="-1" k3="1"/>
<feColorMatrix type="matrix" values="0 0 0 0 0.376471 0 0 0 0 0.376471 0 0 0 0 0.376471 0 0 0 0.15 0"/>
<feBlend mode="normal" in2="shape" result="effect1_innerShadow_1_7"/>
</filter>
<linearGradient id="paint0_linear_1_7" x1="79.5869" y1="7.90806" x2="192.672" y2="24.8993" gradientUnits="userSpaceOnUse">
<stop stop-color="#DC3E88"/>
<stop offset="0.418735" stop-color="#B840AE"/>
<stop offset="1" stop-color="#843FE8"/>
</linearGradient>
<linearGradient id="paint1_linear_1_7" x1="20.1097" y1="6.10642" x2="21.8254" y2="6.19983" gradientUnits="userSpaceOnUse">
<stop stop-color="#DC3E88"/>
<stop offset="0.418735" stop-color="#B840AE"/>
<stop offset="1" stop-color="#843FE8"/>
</linearGradient>
<linearGradient id="paint2_linear_1_7" x1="18.7847" y1="8.75035" x2="23.0084" y2="9.32527" gradientUnits="userSpaceOnUse">
<stop stop-color="#DC3E88"/>
<stop offset="0.418735" stop-color="#B840AE"/>
<stop offset="1" stop-color="#843FE8"/>
</linearGradient>
<linearGradient id="paint3_linear_1_7" x1="7.95555" y1="18.0041" x2="8.81529" y2="18.0275" gradientUnits="userSpaceOnUse">
<stop stop-color="#DC3E88"/>
<stop offset="0.418735" stop-color="#B840AE"/>
<stop offset="1" stop-color="#843FE8"/>
</linearGradient>
<linearGradient id="paint4_linear_1_7" x1="10.7546" y1="18.0041" x2="11.6144" y2="18.0275" gradientUnits="userSpaceOnUse">
<stop stop-color="#DC3E88"/>
<stop offset="0.418735" stop-color="#B840AE"/>
<stop offset="1" stop-color="#843FE8"/>
</linearGradient>
<linearGradient id="paint5_linear_1_7" x1="13.5538" y1="18.0041" x2="14.4135" y2="18.0275" gradientUnits="userSpaceOnUse">
<stop stop-color="#DC3E88"/>
<stop offset="0.418735" stop-color="#B840AE"/>
<stop offset="1" stop-color="#843FE8"/>
</linearGradient>
<linearGradient id="paint6_linear_1_7" x1="16.3528" y1="18.0041" x2="17.2125" y2="18.0275" gradientUnits="userSpaceOnUse">
<stop stop-color="#DC3E88"/>
<stop offset="0.418735" stop-color="#B840AE"/>
<stop offset="1" stop-color="#843FE8"/>
</linearGradient>
<linearGradient id="paint7_linear_1_7" x1="19.1519" y1="18.0041" x2="20.0116" y2="18.0275" gradientUnits="userSpaceOnUse">
<stop stop-color="#DC3E88"/>
<stop offset="0.418735" stop-color="#B840AE"/>
<stop offset="1" stop-color="#843FE8"/>
</linearGradient>
<linearGradient id="paint8_linear_1_7" x1="21.9509" y1="18.0041" x2="22.8107" y2="18.0275" gradientUnits="userSpaceOnUse">
<stop stop-color="#DC3E88"/>
<stop offset="0.418735" stop-color="#B840AE"/>
<stop offset="1" stop-color="#843FE8"/>
</linearGradient>
<linearGradient id="paint9_linear_1_7" x1="24.75" y1="18.0041" x2="25.6098" y2="18.0275" gradientUnits="userSpaceOnUse">
<stop stop-color="#DC3E88"/>
<stop offset="0.418735" stop-color="#B840AE"/>
<stop offset="1" stop-color="#843FE8"/>
</linearGradient>
<linearGradient id="paint10_linear_1_7" x1="27.5491" y1="18.0041" x2="28.4088" y2="18.0275" gradientUnits="userSpaceOnUse">
<stop stop-color="#DC3E88"/>
<stop offset="0.418735" stop-color="#B840AE"/>
<stop offset="1" stop-color="#843FE8"/>
</linearGradient>
<linearGradient id="paint11_linear_1_7" x1="30.3482" y1="18.0041" x2="31.2079" y2="18.0275" gradientUnits="userSpaceOnUse">
<stop stop-color="#DC3E88"/>
<stop offset="0.418735" stop-color="#B840AE"/>
<stop offset="1" stop-color="#843FE8"/>
</linearGradient>
<linearGradient id="paint12_linear_1_7" x1="33.1473" y1="18.0041" x2="34.007" y2="18.0275" gradientUnits="userSpaceOnUse">
<stop stop-color="#DC3E88"/>
<stop offset="0.418735" stop-color="#B840AE"/>
<stop offset="1" stop-color="#843FE8"/>
</linearGradient>
<linearGradient id="paint13_linear_1_7" x1="14.2535" y1="27.2578" x2="15.1132" y2="27.2813" gradientUnits="userSpaceOnUse">
<stop stop-color="#DC3E88"/>
<stop offset="0.418735" stop-color="#B840AE"/>
<stop offset="1" stop-color="#843FE8"/>
</linearGradient>
<linearGradient id="paint14_linear_1_7" x1="24.4574" y1="22.8161" x2="31.3338" y2="23.03" gradientUnits="userSpaceOnUse">
<stop stop-color="#DC3E88"/>
<stop offset="0.418735" stop-color="#B840AE"/>
<stop offset="1" stop-color="#843FE8"/>
</linearGradient>
<linearGradient id="paint15_linear_1_7" x1="7.74304" y1="3.87955" x2="33.5317" y2="4.64508" gradientUnits="userSpaceOnUse">
<stop stop-color="#DC3E88"/>
<stop offset="0.418735" stop-color="#B840AE"/>
<stop offset="1" stop-color="#843FE8"/>
</linearGradient>
</defs>
</svg>
