<svg width="217" height="50" viewBox="0 0 217 50" fill="none" xmlns="http://www.w3.org/2000/svg">
<path d="M40.3722 10.6V39H46.1322V21.04L52.7322 33.08H56.9722L63.5722 21.04V39H69.3322V10.6H63.9322L54.9322 27L45.9722 10.6H40.3722ZM75.3128 10.6V39H85.8328C90.9928 39 96.1928 36.68 96.1928 30.92C96.1928 27.72 94.6328 25.12 91.6328 23.96C93.9128 22.72 94.9928 20.52 94.9928 17.96C94.9928 12.52 90.2728 10.6 85.6328 10.6H75.3128ZM81.0728 34.08V26.64H85.5528C88.0328 26.64 90.2328 27.56 90.2328 30.36C90.2328 33.16 88.0328 34.08 85.5528 34.08H81.0728ZM81.0728 22.04V15.52H84.9928C87.1928 15.52 89.0728 16.32 89.0728 18.8C89.0728 21.24 87.1528 22.04 84.9928 22.04H81.0728ZM98.7857 15.88H106.786V39H112.746V15.88H120.746V10.6H98.7857V15.88ZM120.753 28.44C120.753 34.8 125.433 39.6 131.713 39.6C138.193 39.6 142.833 34.72 142.833 28.4C142.833 22 138.153 17.28 131.873 17.28C125.473 17.28 120.753 22.16 120.753 28.44ZM131.793 22.32C135.193 22.32 137.113 25.32 137.113 28.44C137.113 31.6 135.113 34.56 131.793 34.56C128.433 34.56 126.473 31.52 126.473 28.44C126.473 25.28 128.473 22.32 131.793 22.32ZM147.314 9.16V39H152.794V28.48L161.074 39H168.154L158.394 27.24L167.194 17.88H160.634L152.794 26.48V9.16H147.314ZM169.423 28.4C169.423 34.8 173.863 39.6 180.223 39.6C184.183 39.6 188.303 37.64 189.823 33.84L184.823 32.24C183.783 33.92 182.263 34.88 180.263 34.88C177.223 34.88 175.543 32.64 175.103 29.84H190.263V28.44C190.263 22.04 186.383 17.28 179.943 17.28C173.623 17.28 169.423 22.4 169.423 28.4ZM179.943 21.6C182.623 21.6 184.143 23.6 184.503 26.08H175.183C175.663 23.6 177.263 21.6 179.943 21.6ZM194.539 17.88V39H200.139V26.88C200.139 24.28 201.859 22.32 204.459 22.32C207.219 22.32 208.219 24.6 208.219 27.04V39H213.819V26.32C213.819 21.4 211.299 17.28 206.099 17.28C203.539 17.28 201.179 18.36 199.859 20.6L199.699 17.88H194.539Z" fill="#F7F7F7"/>
<path d="M31.5447 15.0017C34.8164 22.9887 31.8168 33.9749 24.8219 39.5337C17.827 45.0925 9.51064 43.0989 6.23898 35.1119C2.96732 27.1249 5.96685 16.1387 12.9618 10.5799C19.9567 5.02115 28.273 7.01472 31.5447 15.0017Z" fill="#434343" stroke="#434343" stroke-width="0.2"/>
<path d="M33.9376 16.4308C37.0263 23.9713 34.1947 34.3441 27.5898 39.5929C20.985 44.8417 13.1332 42.9588 10.0445 35.4184C6.95574 27.878 9.78735 17.5051 16.3922 12.2563C22.997 7.00755 30.8488 8.8904 33.9376 16.4308Z" fill="white" stroke="#434343" stroke-width="0.2"/>
<path d="M32.8945 17.5849C35.7518 24.5602 33.2872 34.014 27.3898 38.7005C21.4925 43.3871 14.3955 41.5318 11.5382 34.5565C8.68095 27.5811 11.1456 18.1274 17.0429 13.4408C22.9402 8.75427 30.0373 10.6095 32.8945 17.5849Z" stroke="#434343" stroke-width="0.2"/>
<path d="M31.0898 19.3414C33.4638 25.1369 31.4483 32.9642 26.5903 36.8248C21.7324 40.6854 15.8691 39.1191 13.4951 33.3236C11.1212 27.5281 13.1366 19.7008 17.9946 15.8402C22.8526 11.9796 28.7158 13.5458 31.0898 19.3414Z" stroke="#434343" stroke-width="0.2"/>
<path d="M23.2657 21.7027L23.2657 21.4749L23.9965 21.1615L23.9965 21.3893L23.2657 21.7027Z" fill="#434343" stroke="#434343" stroke-width="0.2"/>
<path d="M22.5802 22.8524L22.5802 22.6246L24.6827 21.7227L24.6827 21.9505L22.5802 22.8524Z" fill="#434343" stroke="#434343" stroke-width="0.2"/>
<path d="M19.3795 27.2197L19.3795 26.992L19.653 26.8747L19.653 27.1024L19.3795 27.2197Z" fill="#434343" stroke="#434343" stroke-width="0.2"/>
<path d="M20.2928 26.8274L20.2928 26.5996L20.5663 26.4823L20.5663 26.7101L20.2928 26.8274Z" fill="#434343" stroke="#434343" stroke-width="0.2"/>
<path d="M21.2081 26.4351L21.2081 26.2074L21.4816 26.0901L21.4816 26.3178L21.2081 26.4351Z" fill="#434343" stroke="#434343" stroke-width="0.2"/>
<path d="M22.1236 26.0427L22.1236 25.8149L22.3971 25.6976L22.3971 25.9254L22.1236 26.0427Z" fill="#434343" stroke="#434343" stroke-width="0.2"/>
<path d="M23.037 25.6502L23.037 25.4225L23.3104 25.3052L23.3104 25.5329L23.037 25.6502Z" fill="#434343" stroke="#434343" stroke-width="0.2"/>
<path d="M23.9523 25.2581L23.9523 25.0303L24.2257 24.913L24.2257 25.1408L23.9523 25.2581Z" fill="#434343" stroke="#434343" stroke-width="0.2"/>
<path d="M24.8673 24.8657L24.8673 24.638L25.1408 24.5207L25.1408 24.7484L24.8673 24.8657Z" fill="#434343" stroke="#434343" stroke-width="0.2"/>
<path d="M25.7806 24.4735L25.7806 24.2457L26.0541 24.1284L26.0541 24.3562L25.7806 24.4735Z" fill="#434343" stroke="#434343" stroke-width="0.2"/>
<path d="M26.6959 24.0813L26.6959 23.8535L26.9694 23.7362L26.9694 23.964L26.6959 24.0813Z" fill="#434343" stroke="#434343" stroke-width="0.2"/>
<path d="M27.6092 23.689L27.6092 23.4612L27.8827 23.3439L27.8827 23.5717L27.6092 23.689Z" fill="#434343" stroke="#434343" stroke-width="0.2"/>
<path d="M24.5461 27.5699L24.4542 27.6093L24.4542 27.7093L24.4542 28.5649L24.4542 28.6649L24.5461 28.6254L25.6893 28.1351L25.7812 28.0957L25.7812 27.9957L25.7812 27.1401L25.7812 27.0401L25.6893 27.0796L24.5461 27.5699ZM26.0547 27.8784L26.0547 27.9784L26.1466 27.9389L27.2897 27.4486L27.3817 27.4091L27.3817 27.3091L27.3817 26.4536L27.3817 26.3536L27.2897 26.393L26.1466 26.8834L26.0547 26.9228L26.0547 27.0228L26.0547 27.8784ZM27.2897 26.1653L27.3817 26.1259L27.3817 26.0259L27.3817 25.1704L27.3817 25.0704L27.2897 25.1098L26.1466 25.6001L26.0547 25.6396L26.0547 25.7396L26.0547 26.5951L26.0547 26.6951L26.1466 26.6557L27.2897 26.1653ZM25.7812 25.8569L25.7812 25.7569L25.6893 25.7963L24.5461 26.2866L24.4542 26.3261L24.4542 26.4261L24.4542 27.2816L24.4542 27.3816L24.5461 27.3422L25.6893 26.8518L25.7812 26.8124L25.7812 26.7124L25.7812 25.8569ZM24.1808 28.896L24.1808 26.3295C24.1808 26.2932 24.1929 26.2627 24.2117 26.2371C24.2317 26.2098 24.2661 26.179 24.3175 26.157L27.5184 24.7839C27.5699 24.7619 27.6043 24.7631 27.6242 24.7732C27.643 24.7827 27.6551 24.8027 27.6551 24.8392L27.6551 27.4057C27.6551 27.4422 27.643 27.4727 27.6242 27.4982C27.6043 27.5255 27.5699 27.5562 27.5184 27.5783L24.3175 28.9513C24.266 28.9734 24.2316 28.9721 24.2117 28.962C24.1929 28.9525 24.1808 28.9325 24.1808 28.896Z" fill="#434343" stroke="#434343" stroke-width="0.2"/>
<path d="M29.4841 28.1183L29.4841 28.2183L29.576 28.1789L30.3986 27.826L30.3986 28.0537L29.3474 28.5047L17.9156 33.4083L16.8644 33.8593L16.8644 33.6315L17.687 33.2786L17.7789 33.2392L17.7789 33.1392L17.7789 32.4976C17.7789 32.4611 17.7911 32.4306 17.8098 32.4051C17.8298 32.3778 17.8641 32.3471 17.9156 32.325L18.3729 32.1289L18.4648 32.0895L18.4648 31.9895L18.4648 26.8564L18.4648 26.7564L18.3729 26.7958L17.687 27.09C17.6355 27.1121 17.6011 27.1109 17.5812 27.1008C17.5624 27.0913 17.5503 27.0712 17.5503 27.0348L17.5503 26.2434C17.5503 26.2089 17.5601 26.1769 17.5955 26.1397L17.7327 25.9953L17.7789 25.9467L17.7789 25.938L23.5438 19.4578L23.5441 19.4575C23.5779 19.4193 23.6065 19.3985 23.6315 19.3878C23.6564 19.3771 23.6851 19.3733 23.7189 19.3825L23.7194 19.3826L25.64 19.8849L25.7811 19.9218L25.7811 19.7399L25.7811 18.7988C25.7811 18.7624 25.7933 18.7319 25.812 18.7064C25.832 18.6791 25.8663 18.6484 25.9178 18.6263L27.7469 17.8417C27.7984 17.8196 27.8328 17.8209 27.8528 17.831C27.8715 17.8405 27.8836 17.8605 27.8836 17.897L27.8836 20.4421L27.8836 20.4971L27.9264 20.5083L29.664 20.9606L29.6639 20.9607L29.6675 20.9614C29.7029 20.9683 29.7127 20.9919 29.7127 21.0264L29.7127 21.8177C29.7127 21.8542 29.7006 21.8846 29.6818 21.9102C29.6619 21.9374 29.6275 21.9682 29.576 21.9902L28.8901 22.2845L28.7982 22.3239L28.7982 22.4239L28.7982 27.557L28.7982 27.657L28.8901 27.6176L29.3474 27.4214C29.3988 27.3993 29.4332 27.4005 29.4532 27.4107C29.4719 27.4201 29.4841 27.4402 29.4841 27.4766L29.4841 28.1183ZM27.6102 18.2281L27.6102 18.1281L27.5183 18.1676L26.1465 18.756L26.0546 18.7954L26.0546 18.8954L26.0546 19.1093L26.0546 19.2093L26.1465 19.1699L27.5183 18.5814L27.6102 18.542L27.6102 18.442L27.6102 18.2281ZM26.1465 19.3976L26.0546 19.4371L26.0546 19.5371L26.0546 19.9434L26.0546 19.9979L26.0967 20.0094L27.4685 20.3834L27.6102 20.4221L27.6102 20.2386L27.6102 18.8698L27.6102 18.7698L27.5183 18.8092L26.1465 19.3976ZM17.9156 26.1364L17.8237 26.1758L17.8237 26.2758L17.8237 26.7038L17.8237 26.8038L17.9156 26.7644L18.6015 26.4702L28.6614 22.155L29.3474 21.8608L29.4393 21.8214L29.4393 21.7214L29.4393 21.2508L29.4393 21.1961L29.3969 21.1848L23.681 19.6584L23.6315 19.6452L23.582 19.7009L18.4149 25.5103L18.1499 25.8082L18.4644 25.6733L26.9691 22.0252L26.9691 22.2529L17.9156 26.1364ZM18.8302 26.5997L18.7383 26.6391L18.7383 26.7391L18.7383 31.8722L18.7383 31.9722L18.8302 31.9327L19.7447 31.5405L19.8366 31.501L19.8366 31.401L19.8366 28.4067L19.8366 28.3067L19.7447 28.3462L19.3793 28.5029L19.3793 28.2751L19.9733 28.0203L22.4883 26.9415L23.0823 26.6867L23.0823 26.9145L22.717 27.0712L22.6251 27.1106L22.6251 27.2106L22.6251 30.2049L22.6251 30.3049L22.717 30.2655L28.4328 27.8137L28.5247 27.7743L28.5247 27.6743L28.5247 22.5412L28.5247 22.4412L28.4328 22.4806L18.8302 26.5997ZM20.202 28.15L20.1101 28.1894L20.1101 28.2894L20.1101 31.2837L20.1101 31.3837L20.202 31.3443L22.2597 30.4617L22.3516 30.4222L22.3516 30.3222L22.3516 27.3279L22.3516 27.2279L22.2597 27.2674L20.202 28.15ZM18.0524 33.0219L18.0524 33.1219L18.1443 33.0825L29.1187 28.375L29.2106 28.3356L29.2106 28.2356L29.2106 27.8078L29.2106 27.7078L29.1187 27.7472L28.6614 27.9434L22.4883 30.5913L19.9733 31.6701L18.6015 32.2586L18.1443 32.4547L18.0524 32.4941L18.0524 32.5941L18.0524 33.0219Z" fill="#434343" stroke="#434343" stroke-width="0.2"/>
</svg>
